<?xml version="1.0" encoding="UTF-8"?>
<svg xmlns="http://www.w3.org/2000/svg" style="stroke-dasharray:none; shape-rendering:auto; font-family:'Arial'; text-rendering:auto; fill-opacity:1; color-interpolation:auto; color-rendering:auto; font-size:12; fill:black; stroke:black; image-rendering:auto; stroke-miterlimit:10; stroke-linecap:square; stroke-linejoin:miter; font-style:normal; stroke-width:1; stroke-dashoffset:0; font-weight:normal; stroke-opacity:1;" contentScriptType="text/ecmascript" preserveAspectRatio="xMidYMid meet" zoomAndPan="magnify" version="1.0" contentStyleType="text/css" xml:xlink="http://www.w3.org/1999/xlink" width="750" height="1361"><rect x="100" y="1020" width="650" height="341" ry="0" rx="0" style="stroke:#000000; fill:#FFFFFF" /><g componentSequence="6"><text x="-1190" y="107" transform="rotate(270)" text-anchor="middle" style="font-weight:bold;font-size:10px;stroke:none; fill:#434343"><tspan dy="14" x="-1190">Presidente</tspan></text></g><rect x="100" y="0" width="650" height="251" ry="0" rx="0" style="stroke:#000000; fill:#FFFFFF" /><g componentSequence="5"><text x="-125" y="107" transform="rotate(270)" text-anchor="middle" style="font-weight:bold;font-size:10px;stroke:none; fill:#434343"><tspan dy="14" x="-125">Solicitante</tspan></text></g><rect x="100" y="640" width="650" height="191" ry="0" rx="0" style="stroke:#000000; fill:#FFFFFF" /><g componentSequence="4"><text x="-735" y="107" transform="rotate(270)" text-anchor="middle" style="font-weight:bold;font-size:10px;stroke:none; fill:#434343"><tspan dy="14" x="-735">Controller</tspan></text></g><rect x="100" y="450" width="650" height="191" ry="0" rx="0" style="stroke:#000000; fill:#FFFFFF" /><g componentSequence="3"><text x="-545" y="107" transform="rotate(270)" text-anchor="middle" style="font-weight:bold;font-size:10px;stroke:none; fill:#434343"><tspan dy="14" x="-545">Contabil</tspan></text></g><rect x="100" y="250" width="650" height="201" ry="0" rx="0" style="stroke:#000000; fill:#FFFFFF" /><g componentSequence="2"><text x="-350" y="107" transform="rotate(270)" text-anchor="middle" style="font-weight:bold;font-size:10px;stroke:none; fill:#434343"><tspan dy="14" x="-350">Gerencia Projetos</tspan></text></g><rect x="100" y="830" width="650" height="191" ry="0" rx="0" style="stroke:#000000; fill:#FFFFFF" /><g componentSequence="1"><text x="-925" y="107" transform="rotate(270)" text-anchor="middle" style="font-weight:bold;font-size:10px;stroke:none; fill:#434343"><tspan dy="14" x="-925">Diretoria</tspan></text></g><g sequence="7"><ellipse cx="187" cy="147" rx="17" ry="17" stroke-width="1" style="fill:url(#linearGradient66FF6696FF96B6FFB6_1947576284);" stroke="336633" /></g><g sequence="8"><rect x="247" y="260" width="106" height="84" ry="5" rx="5" style="fill:url(#linearGradientF8FBFEEDF5FCDEEDFAD4E7F8E2E5E9_2060605230);" stroke="191970" /></g><g componentSequence="8"><text x="300" y="275" text-anchor="middle" style="font-weight:bold;font-size:10px;stroke:none; fill:#333399"><tspan dy="14" x="300">Avaliação do</tspan><tspan dy="14" x="300">gestor de</tspan><tspan dy="14" x="300">Projetos</tspan></text></g><g sequence="10"><polygon points=" 270 400 300 370 330 400 300 430 270 400" style="fill:url(#linearGradientFAFBFCFFFFCC_2129513644);" stroke="000000" /></g><g componentSequence="10"><text x="300" y="440" text-anchor="middle" style="font-weight:bold;font-size:10px;stroke:none; fill:#333399"><tspan dy="14" x="300">Gestor</tspan><tspan dy="14" x="300">Aprova</tspan></text></g><g sequence="12"><rect x="247" y="490" width="106" height="70" ry="5" rx="5" style="fill:url(#linearGradientF8FBFEEDF5FCDEEDFAD4E7F8E2E5E9_1005542677);" stroke="191970" /></g><g componentSequence="12"><text x="300" y="505" text-anchor="middle" style="font-weight:bold;font-size:10px;stroke:none; fill:#333399"><tspan dy="14" x="300">Valida</tspan><tspan dy="14" x="300">documentos</tspan></text></g><g sequence="14"><polygon points=" 270 610 300 580 330 610 300 640 270 610" style="fill:url(#linearGradientFAFBFCFFFFCC_1646077683);" stroke="000000" /></g><g componentSequence="14"><text x="300" y="650" text-anchor="middle" style="font-weight:bold;font-size:10px;stroke:none; fill:#333399"><tspan dy="14" x="300">Docume</tspan><tspan dy="14" x="300">ntos</tspan></text></g><g sequence="18"><rect x="247" y="690" width="106" height="70" ry="5" rx="5" style="fill:url(#linearGradientF8FBFEEDF5FCDEEDFAD4E7F8E2E5E9_169764537);" stroke="191970" /></g><g componentSequence="18"><text x="300" y="705" text-anchor="middle" style="font-weight:bold;font-size:10px;stroke:none; fill:#333399"><tspan dy="14" x="300">Aprovação</tspan><tspan dy="14" x="300">Controller</tspan></text></g><g sequence="20"><polygon points=" 270 800 300 770 330 800 300 830 270 800" style="fill:url(#linearGradientFAFBFCFFFFCC_436618234);" stroke="000000" /></g><g componentSequence="20"><text x="300" y="840" text-anchor="middle" style="font-weight:bold;font-size:10px;stroke:none; fill:#333399"><tspan dy="14" x="300">Controlle</tspan><tspan dy="14" x="300">r</tspan><tspan dy="14" x="300">aprova?</tspan></text></g><g sequence="22"><rect x="247" y="893" width="106" height="70" ry="5" rx="5" style="fill:url(#linearGradientF8FBFEEDF5FCDEEDFAD4E7F8E2E5E9_1539351130);" stroke="191970" /></g><g componentSequence="22"><text x="300" y="908" text-anchor="middle" style="font-weight:bold;font-size:10px;stroke:none; fill:#333399"><tspan dy="14" x="300">Aprovação</tspan><tspan dy="14" x="300">diretoria</tspan></text></g><g sequence="24"><polygon points=" 270 1010 300 980 330 1010 300 1040 270 1010" style="fill:url(#linearGradientFAFBFCFFFFCC_1348549999);" stroke="000000" /></g><g componentSequence="24"><text x="300" y="1050" text-anchor="middle" style="font-weight:bold;font-size:10px;stroke:none; fill:#333399"><tspan dy="14" x="300">Diretoria</tspan><tspan dy="14" x="300">Aprova</tspan></text></g><g sequence="26"><rect x="247" y="1110" width="106" height="70" ry="5" rx="5" style="fill:url(#linearGradientF8FBFEEDF5FCDEEDFAD4E7F8E2E5E9_699638388);" stroke="191970" /></g><g componentSequence="26"><text x="300" y="1125" text-anchor="middle" style="font-weight:bold;font-size:10px;stroke:none; fill:#333399"><tspan dy="14" x="300">Aprovação</tspan><tspan dy="14" x="300">Presidente</tspan></text></g><g sequence="28"><polygon points=" 270 1250 300 1220 330 1250 300 1280 270 1250" style="fill:url(#linearGradientFAFBFCFFFFCC_16919851);" stroke="000000" /></g><g componentSequence="28"><text x="300" y="1290" text-anchor="middle" style="font-weight:bold;font-size:10px;stroke:none; fill:#333399"><tspan dy="14" x="300">Presiden</tspan><tspan dy="14" x="300">te</tspan><tspan dy="14" x="300">Aprova?</tspan></text></g><g sequence="30"><rect x="420" y="128" width="106" height="70" ry="5" rx="5" style="fill:url(#linearGradientF8FBFEEDF5FCDEEDFAD4E7F8E2E5E9_1603181859);" stroke="191970" /></g><g componentSequence="30"><text x="473" y="143" text-anchor="middle" style="font-weight:bold;font-size:10px;stroke:none; fill:#333399"><tspan dy="14" x="473">Avalia</tspan><tspan dy="14" x="473">Atendimento</tspan></text></g><g sequence="31"><ellipse cx="472" cy="67" rx="17" ry="17" stroke-width="3" style="fill:url(#linearGradientFF6666FF9696FFB6B6_115165688);" stroke="993333" /></g><g sequence="38"><rect x="550" y="485" width="106" height="126" ry="5" rx="5" style="fill:url(#linearGradientF8FBFEEDF5FCDEEDFAD4E7F8E2E5E9_852093781);" stroke="191970" /></g><g componentSequence="38"><text x="603" y="500" text-anchor="middle" style="font-weight:bold;font-size:10px;stroke:none; fill:#333399"><tspan dy="14" x="603">Cadastra</tspan><tspan dy="14" x="603">projetos no</tspan><tspan dy="14" x="603">sistema</tspan><tspan dy="14" x="603">protheus e</tspan><tspan dy="14" x="603">informa dados</tspan><tspan dy="14" x="603">do cadastro</tspan></text></g><g componentSequence="9"><text x="309" y="156" style="font-size:10px;font-weight:none;stroke:none; fill:#333399" text-anchor="left" /></g><g componentSequence="11"><text x="310" y="357" style="font-size:10px;font-weight:none;stroke:none; fill:#333399" text-anchor="left" /></g><g componentSequence="13"><text x="310" y="481" style="font-size:10px;font-weight:none;stroke:none; fill:#333399" text-anchor="left" /></g><g componentSequence="15"><text x="310" y="570" style="font-size:10px;font-weight:none;stroke:none; fill:#333399" text-anchor="left" /></g><g componentSequence="16"><text x="197" y="334" style="font-size:10px;font-weight:none;stroke:none; fill:#333399" text-anchor="left"><tspan dy="14" x="197">Revisar dados</tspan></text></g><g componentSequence="17"><text x="197" y="439" style="font-size:10px;font-weight:none;stroke:none; fill:#333399" text-anchor="left"><tspan dy="14" x="197">Revisar dados</tspan></text></g><g componentSequence="19"><text x="310" y="686" style="font-size:10px;font-weight:none;stroke:none; fill:#333399" text-anchor="left" /></g><g componentSequence="21"><text x="310" y="765" style="font-size:10px;font-weight:none;stroke:none; fill:#333399" text-anchor="left" /></g><g componentSequence="23"><text x="310" y="889" style="font-size:10px;font-weight:none;stroke:none; fill:#333399" text-anchor="left" /></g><g componentSequence="25"><text x="310" y="971" style="font-size:10px;font-weight:none;stroke:none; fill:#333399" text-anchor="left" /></g><g componentSequence="27"><text x="310" y="1096" style="font-size:10px;font-weight:none;stroke:none; fill:#333399" text-anchor="left" /></g><g componentSequence="29"><text x="310" y="1200" style="font-size:10px;font-weight:none;stroke:none; fill:#333399" text-anchor="left" /></g><g componentSequence="32"><text x="482" y="106" style="font-size:10px;font-weight:none;stroke:none; fill:#333399" text-anchor="left" /></g><g componentSequence="33"><text x="482" y="380" style="font-size:10px;font-weight:none;stroke:none; fill:#333399" text-anchor="left"><tspan dy="14" x="482">Reprovado</tspan></text></g><g componentSequence="34"><text x="482" y="485" style="font-size:10px;font-weight:none;stroke:none; fill:#333399" text-anchor="left"><tspan dy="14" x="482">Reprovado</tspan></text></g><g componentSequence="35"><text x="482" y="584" style="font-size:10px;font-weight:none;stroke:none; fill:#333399" text-anchor="left"><tspan dy="14" x="482">Reprovado</tspan></text></g><g componentSequence="36"><text x="482" y="685" style="font-size:10px;font-weight:none;stroke:none; fill:#333399" text-anchor="left"><tspan dy="14" x="482">Reprovado</tspan></text></g><g componentSequence="37"><text x="482" y="808" style="font-size:10px;font-weight:none;stroke:none; fill:#333399" text-anchor="left"><tspan dy="14" x="482">Reprovado</tspan></text></g><g componentSequence="39"><text x="610" y="1125" style="font-size:10px;font-weight:none;stroke:none; fill:#333399" text-anchor="left"><tspan dy="14" x="610">Aprovado</tspan></text></g><g componentSequence="40"><text x="611" y="285" style="font-size:10px;font-weight:none;stroke:none; fill:#333399" text-anchor="left" /></g><g componentSequence="41"><text x="197" y="639" style="font-size:10px;font-weight:none;stroke:none; fill:#333399" text-anchor="left"><tspan dy="14" x="197">Revisar dados</tspan></text></g><path style="fill:none; stroke:#000000;stroke-width:1" d="M205.0 147.0 L299.0 147.0 L299.0 259.0" /><polygon style="fill:#000000; stroke:#000000;" points=" 304 249 299 259 294 249 299 251" /><path style="fill:none; stroke:#000000;stroke-width:1" d="M269.0 420.0 L187.0 420.0 L187.0 165.0" /><polygon style="fill:#000000; stroke:#000000;" points=" 182 175 187 165 192 175 187 173" /><path style="fill:none; stroke:#000000;stroke-width:1" d="M269.0 630.0 L187.0 630.0 L187.0 165.0" /><polygon style="fill:#000000; stroke:#000000;" points=" 182 175 187 165 192 175 187 173" /><path style="fill:none; stroke:#000000;stroke-width:1" d="M269.0 1030.0 L187.0 1030.0 L187.0 165.0" /><polygon style="fill:#000000; stroke:#000000;" points=" 182 175 187 165 192 175 187 173" /><path style="fill:none; stroke:#000000;stroke-width:1" d="M300.0 344.0 L300.0 369.0" /><polygon style="fill:#000000; stroke:#000000;" points=" 305 359 300 369 295 359 300 361" /><path style="fill:none; stroke:#000000;stroke-width:1" d="M300.0 472.0 L300.0 489.0" /><polygon style="fill:#000000; stroke:#000000;" points=" 305 479 300 489 295 479 300 481" /><path style="fill:none; stroke:#000000;stroke-width:1" d="M330.0 420.0 L472.0 420.0 L472.0 198.0" /><polygon style="fill:#000000; stroke:#000000;" points=" 467 208 472 198 477 208 472 206" /><path style="fill:none; stroke:#000000;stroke-width:1" d="M300.0 560.0 L300.0 579.0" /><polygon style="fill:#000000; stroke:#000000;" points=" 305 569 300 579 295 569 300 571" /><path style="fill:none; stroke:#000000;stroke-width:1" d="M300.0 682.0 L300.0 689.0" /><polygon style="fill:#000000; stroke:#000000;" points=" 305 679 300 689 295 679 300 681" /><path style="fill:none; stroke:#000000;stroke-width:1" d="M330.0 630.0 L472.0 630.0 L472.0 198.0" /><polygon style="fill:#000000; stroke:#000000;" points=" 467 208 472 198 477 208 472 206" /><path style="fill:none; stroke:#000000;stroke-width:1" d="M300.0 760.0 L300.0 769.0" /><polygon style="fill:#000000; stroke:#000000;" points=" 305 759 300 769 295 759 300 761" /><path style="fill:none; stroke:#000000;stroke-width:1" d="M300.0 886.0 L300.0 892.0" /><polygon style="fill:#000000; stroke:#000000;" points=" 305 882 300 892 295 882 300 884" /><path style="fill:none; stroke:#000000;stroke-width:1" d="M330.0 828.0 L472.0 828.0 L472.0 198.0" /><polygon style="fill:#000000; stroke:#000000;" points=" 467 208 472 198 477 208 472 206" /><path style="fill:none; stroke:#000000;stroke-width:1" d="M300.0 963.0 L300.0 979.0" /><polygon style="fill:#000000; stroke:#000000;" points=" 305 969 300 979 295 969 300 971" /><path style="fill:none; stroke:#000000;stroke-width:1" d="M300.0 1082.0 L300.0 1109.0" /><polygon style="fill:#000000; stroke:#000000;" points=" 305 1099 300 1109 295 1099 300 1101" /><path style="fill:none; stroke:#000000;stroke-width:1" d="M330.0 1030.0 L472.0 1030.0 L472.0 198.0" /><polygon style="fill:#000000; stroke:#000000;" points=" 467 208 472 198 477 208 472 206" /><path style="fill:none; stroke:#000000;stroke-width:1" d="M300.0 1180.0 L300.0 1219.0" /><polygon style="fill:#000000; stroke:#000000;" points=" 305 1209 300 1219 295 1209 300 1211" /><path style="fill:none; stroke:#000000;stroke-width:1" d="M330.0 1277.0 L472.0 1276.0 L472.0 198.0" /><polygon style="fill:#000000; stroke:#000000;" points=" 467 208 472 198 477 208 472 206" /><path style="fill:none; stroke:#000000;stroke-width:1" d="M301.0 1336.0 L301.0 1338.0 L600.0 1338.0 L600.0 1276.0 L602.0 611.0" /><polygon style="fill:#000000; stroke:#000000;" points=" 597 621 602 611 607 621 602 619" /><path style="fill:none; stroke:#000000;stroke-width:1" d="M472.0 127.0 L472.0 84.0" /><polygon style="fill:#000000; stroke:#000000;" points=" 467 94 472 84 477 94 472 92" /><path style="fill:none; stroke:#000000;stroke-width:1" d="M602.0 484.0 L601.0 161.0 L526.0 162.0" /><polygon style="fill:#000000; stroke:#000000;" points=" 536 167 526 162 536 157 534 162" /><defs><linearGradient xmlns:xlink="http://www.w3.org/1999/xlink" xlink:href="#linearGradient66FF6696FF96B6FFB6" id="linearGradient66FF6696FF96B6FFB6_1947576284" x1="0" y1="130.0" x2="0" y2="165.0" gradientUnits="userSpaceOnUse" xlink:type="simple" xlink:actuate="onLoad" xlink:show="other" /><linearGradient id="linearGradient66FF6696FF96B6FFB6"><stop style="stop-color:#66FF66;stop-opacity:1;" offset="0.0" id="stop66FF66" /><stop style="stop-color:#96FF96;stop-opacity:1;" offset="0.5" id="stop96FF96" /><stop style="stop-color:#B6FFB6;stop-opacity:1;" offset="1.0" id="stopB6FFB6" /></linearGradient><linearGradient xmlns:xlink="http://www.w3.org/1999/xlink" xlink:href="#linearGradientF8FBFEEDF5FCDEEDFAD4E7F8E2E5E9" id="linearGradientF8FBFEEDF5FCDEEDFAD4E7F8E2E5E9_2060605230" x1="0" y1="260.0" x2="0" y2="366.0" gradientUnits="userSpaceOnUse" xlink:type="simple" xlink:actuate="onLoad" xlink:show="other" /><linearGradient id="linearGradientF8FBFEEDF5FCDEEDFAD4E7F8E2E5E9"><stop style="stop-color:#F8FBFE;stop-opacity:1;" offset="0.0" id="stopF8FBFE" /><stop style="stop-color:#EDF5FC;stop-opacity:1;" offset="0.25" id="stopEDF5FC" /><stop style="stop-color:#DEEDFA;stop-opacity:1;" offset="0.5" id="stopDEEDFA" /><stop style="stop-color:#D4E7F8;stop-opacity:1;" offset="0.75" id="stopD4E7F8" /><stop style="stop-color:#E2E5E9;stop-opacity:1;" offset="1.0" id="stopE2E5E9" /></linearGradient><linearGradient xmlns:xlink="http://www.w3.org/1999/xlink" xlink:href="#linearGradientFAFBFCFFFFCC" id="linearGradientFAFBFCFFFFCC_2129513644" x1="0" y1="370.0" x2="0" y2="430.0" gradientUnits="userSpaceOnUse" xlink:type="simple" xlink:actuate="onLoad" xlink:show="other" /><linearGradient id="linearGradientFAFBFCFFFFCC"><stop style="stop-color:#FAFBFC;stop-opacity:1;" offset="0.0" id="stopFAFBFC" /><stop style="stop-color:#FFFFCC;stop-opacity:1;" offset="1.0" id="stopFFFFCC" /></linearGradient><linearGradient xmlns:xlink="http://www.w3.org/1999/xlink" xlink:href="#linearGradientF8FBFEEDF5FCDEEDFAD4E7F8E2E5E9" id="linearGradientF8FBFEEDF5FCDEEDFAD4E7F8E2E5E9_1005542677" x1="0" y1="490.0" x2="0" y2="596.0" gradientUnits="userSpaceOnUse" xlink:type="simple" xlink:actuate="onLoad" xlink:show="other" /><linearGradient xmlns:xlink="http://www.w3.org/1999/xlink" xlink:href="#linearGradientFAFBFCFFFFCC" id="linearGradientFAFBFCFFFFCC_1646077683" x1="0" y1="580.0" x2="0" y2="640.0" gradientUnits="userSpaceOnUse" xlink:type="simple" xlink:actuate="onLoad" xlink:show="other" /><linearGradient xmlns:xlink="http://www.w3.org/1999/xlink" xlink:href="#linearGradientF8FBFEEDF5FCDEEDFAD4E7F8E2E5E9" id="linearGradientF8FBFEEDF5FCDEEDFAD4E7F8E2E5E9_169764537" x1="0" y1="690.0" x2="0" y2="796.0" gradientUnits="userSpaceOnUse" xlink:type="simple" xlink:actuate="onLoad" xlink:show="other" /><linearGradient xmlns:xlink="http://www.w3.org/1999/xlink" xlink:href="#linearGradientFAFBFCFFFFCC" id="linearGradientFAFBFCFFFFCC_436618234" x1="0" y1="770.0" x2="0" y2="830.0" gradientUnits="userSpaceOnUse" xlink:type="simple" xlink:actuate="onLoad" xlink:show="other" /><linearGradient xmlns:xlink="http://www.w3.org/1999/xlink" xlink:href="#linearGradientF8FBFEEDF5FCDEEDFAD4E7F8E2E5E9" id="linearGradientF8FBFEEDF5FCDEEDFAD4E7F8E2E5E9_1539351130" x1="0" y1="893.0" x2="0" y2="999.0" gradientUnits="userSpaceOnUse" xlink:type="simple" xlink:actuate="onLoad" xlink:show="other" /><linearGradient xmlns:xlink="http://www.w3.org/1999/xlink" xlink:href="#linearGradientFAFBFCFFFFCC" id="linearGradientFAFBFCFFFFCC_1348549999" x1="0" y1="980.0" x2="0" y2="1040.0" gradientUnits="userSpaceOnUse" xlink:type="simple" xlink:actuate="onLoad" xlink:show="other" /><linearGradient xmlns:xlink="http://www.w3.org/1999/xlink" xlink:href="#linearGradientF8FBFEEDF5FCDEEDFAD4E7F8E2E5E9" id="linearGradientF8FBFEEDF5FCDEEDFAD4E7F8E2E5E9_699638388" x1="0" y1="1110.0" x2="0" y2="1216.0" gradientUnits="userSpaceOnUse" xlink:type="simple" xlink:actuate="onLoad" xlink:show="other" /><linearGradient xmlns:xlink="http://www.w3.org/1999/xlink" xlink:href="#linearGradientFAFBFCFFFFCC" id="linearGradientFAFBFCFFFFCC_16919851" x1="0" y1="1220.0" x2="0" y2="1280.0" gradientUnits="userSpaceOnUse" xlink:type="simple" xlink:actuate="onLoad" xlink:show="other" /><linearGradient xmlns:xlink="http://www.w3.org/1999/xlink" xlink:href="#linearGradientF8FBFEEDF5FCDEEDFAD4E7F8E2E5E9" id="linearGradientF8FBFEEDF5FCDEEDFAD4E7F8E2E5E9_1603181859" x1="0" y1="128.0" x2="0" y2="234.0" gradientUnits="userSpaceOnUse" xlink:type="simple" xlink:actuate="onLoad" xlink:show="other" /><linearGradient xmlns:xlink="http://www.w3.org/1999/xlink" xlink:href="#linearGradientFF6666FF9696FFB6B6" id="linearGradientFF6666FF9696FFB6B6_115165688" x1="0" y1="50.0" x2="0" y2="85.0" gradientUnits="userSpaceOnUse" xlink:type="simple" xlink:actuate="onLoad" xlink:show="other" /><linearGradient id="linearGradientFF6666FF9696FFB6B6"><stop style="stop-color:#FF6666;stop-opacity:1;" offset="0.0" id="stopFF6666" /><stop style="stop-color:#FF9696;stop-opacity:1;" offset="0.5" id="stopFF9696" /><stop style="stop-color:#FFB6B6;stop-opacity:1;" offset="1.0" id="stopFFB6B6" /></linearGradient><linearGradient xmlns:xlink="http://www.w3.org/1999/xlink" xlink:href="#linearGradientF8FBFEEDF5FCDEEDFAD4E7F8E2E5E9" id="linearGradientF8FBFEEDF5FCDEEDFAD4E7F8E2E5E9_852093781" x1="0" y1="485.0" x2="0" y2="591.0" gradientUnits="userSpaceOnUse" xlink:type="simple" xlink:actuate="onLoad" xlink:show="other" /></defs></svg>
